<?xml version="1.0" encoding="utf-8"?>
<!-- Generator: Adobe Illustrator 22.1.0, SVG Export Plug-In . SVG Version: 6.00 Build 0)  -->
<svg version="1.1" id="Ebene_1" xmlns="http://www.w3.org/2000/svg" xmlns:xlink="http://www.w3.org/1999/xlink" x="0px" y="0px"
	 viewBox="0 0 1361.2 534.4" style="width:200px;height:50px;" xml:space="preserve">
<style type="text/css">
	.st0{fill:#FFFFFF;}
	.st1{fill:#93C255;}
   
</style>
<path class="st0" d="M70.7,402.3c0,0.6,0.1,1.2,0.3,1.8l0.3,1.3l65.8-1.3c0.6-0.1,1.2-0.2,1.8-0.2c3.4,0,6.7,0.2,9.7,0.6
	c7.6,0.8,17.5,1.1,29.7,1.1c18.4,0,31.1-0.6,38.2-1.9c17.2-3.3,30-7.3,38.4-11.8c8.4-4.6,16.7-11.4,24.8-20.5
	c8.2-9.1,14.5-19.8,19.1-32.2c4.6-12.4,6.9-24.8,6.9-37.4c0-14.1-2.1-26.7-6.2-38c-4.1-11.2-10.2-21.6-18.2-31.1
	c-8-9.5-15.8-16.5-23.5-20.9c-12.3-7-24.2-11.8-35.7-14.4c-11.6-2.6-23.8-3.9-36.8-3.9c-6.4,0-17.1,0.4-31.9,1.3
	c-5.6,0.3-9.9,0.5-12.9,0.5c-10.4,0-20.6-0.3-30.5-1c-4.8-0.9-9.2-1.3-13.2-1.3l-6,0.2H79.2c-1,0-2.7,0.3-5.2,0.8
	c0.2,2.3,0.8,3.8,1.8,4.6c1,0.8,3.7,1.7,8.1,2.7c10.6,2.3,17.2,4.7,19.7,7.4c1.7,1.8,2.6,5.7,2.6,11.6l0.5,52.4l-0.3,20.8l0.3,11.3
	l-0.3,15.3v25.5c0,24.2-1.5,39.3-4.4,45.2c-3.8,2.8-9.5,4.6-17.1,5.5c-5.3,0.5-9.9,1.7-13.9,3.4L70.7,402.3L70.7,402.3z
	 M136.4,377.6c-2-6.1-3-36-3-89.7l0.2-36.6c0-7.5-0.2-17.5-0.5-30c-0.1-1.9-0.2-3.6-0.2-5c0-2.3,0.3-4.7,1-7.4
	c0.6-0.9,1.3-1.6,1.9-2.3c5.4-2.5,13.6-3.7,24.8-3.7c16.2,0,31.3,2.1,45.3,6.4c14,4.2,26.1,10.9,36.4,20.1
	c10.3,9.1,17.4,18.7,21.5,28.7c5.9,14.4,8.9,28.6,8.9,42.6c0,14.6-1.5,26.5-4.5,35.6c-2.2,6.2-5.8,13.2-11,21
	c-5.2,7.8-11.7,14.8-19.8,21c-8,6.2-17.2,11-27.6,14.3c-10.4,3.4-21.1,5.1-31.9,5.1c-8.4,0-16.7-1.4-24.8-4.2
	C143.9,388.9,138.4,383.6,136.4,377.6L136.4,377.6z M302.8,400.9v1c4.1,0.3,7.4,0.5,10,0.5c1.6,0,4.2-0.1,7.9-0.3
	c5.6-0.2,9.5-0.3,11.8-0.3s6,0.1,11.3,0.3c11.4,0.5,21.4,0.8,30,0.8c2.6,0,6.3-0.1,11.1-0.2c0.3-1.1,0.5-1.9,0.5-2.4
	c0-0.8-0.6-1.6-1.8-2.6l-21.9-1.9c-3.8-0.5-6.8-1.1-9-1.8c-1-2.3-1.5-3.9-1.5-4.8c0-1.7,3-11,9-27.9l14.2-44.3
	c0.4-1.4,1.3-3.7,2.7-6.9c4.4-0.5,8.4-0.8,12.1-0.8l10.2,0.2l34.5-0.3c3.3,0,7.2,0.4,11.6,1.1c10,27,15.7,43,17.1,47.8
	c1.4,4.8,3.1,10,5.1,15.3c2.8,8.1,4.2,13.1,4.2,15c0,1-0.3,2.4-1,4.4c-2.3,1-5.6,1.6-10,1.8l-16.9,1.1c-1.1,0.1-2.3,0.5-3.5,1.1
	c-0.5,1.4-0.8,2.8-0.8,4.4c1,0.5,2,0.9,3.2,1h3.5c1,0,2.1,0.1,3.5,0.2c1.3,0.1,2.7,0.2,4,0.2l19.5-0.2l16.1,0.4
	c13.9,0.3,23.5,0.5,29,0.5c1.4,0,3.8-0.1,7.3-0.2c0.3-1.1,0.5-1.9,0.5-2.4c0-0.6-0.2-1.6-0.6-2.7c-1.9-1-5.4-2.2-10.3-3.6
	c-1.4-0.4-3.8-1.1-7.3-1.9c-3.5-0.9-5.5-1.5-6-1.9c-1.8-1.5-3.8-4.6-6-9.3c-2.2-4.7-6.7-17.2-13.5-37.6l-13-35.9l-24.5-66.3
	c-4.4-11.1-7.6-19.4-9.5-25c-3.5-10.5-7.6-20.4-12.2-29.5l-5.6-0.2l-4.7,0.3c-3.2,10.1-6,18.2-8.2,24.2c-9,23.9-14.7,39.1-17.1,45.8
	l-15.2,42.4c-2.5,7.1-5.1,13.9-7.7,20.3c-0.9,2-3,7.8-6.3,17.4c-7,20.1-13.3,35.6-18.9,46.6c-2.7,5.1-5.9,8.6-9.7,10.6
	c-1.5,0.8-6.4,1.5-14.7,2.3c-1.8,0.1-3.1,0.2-3.9,0.2h-3.7c-1.2,0-2.5,0.4-4,1.3C303,399.1,302.8,400.1,302.8,400.9L302.8,400.9
	L302.8,400.9z M379.4,300.4c0.8-1.7,1.3-3.4,1.7-5.1c0.4-1.7,1.3-4.6,2.8-8.7c1.5-4.1,3-8.3,4.4-12.5c3-9.3,8-22.4,14.9-39.2
	c4.1-9.8,6.5-15.3,7.1-16.6l1.6,2.9l14.7,37.2c0.7,1.9,4.6,12.2,11.6,30.9c1.4,3.7,2.6,7.6,3.7,11.8c-6.3,0.5-13.7,0.8-22.1,0.8
	c-14.7,0-27.8-0.3-39.3-1L379.4,300.4L379.4,300.4z M542.6,402.6h3.1l38,0.2l22.3-0.3c6.9,0.3,11.7,0.5,14.4,0.5
	c4.6,0,11.8-0.2,21.6-0.5v-1.3c0-1-0.2-2.1-0.5-3.5c-1.6-1.5-5.4-2.4-11.4-2.6c-2.8-0.1-6.7-0.8-11.6-1.9c-3.3-0.9-5.7-2-7.2-3.5
	c-1.4-1.5-2.5-3.8-3.1-7.2c-0.6-3.3-0.9-11-0.9-23.1c0-3.2,0.1-9.3,0.3-18.2v-28.4L607,241l0.8-20.8c0.2-5.3,0.9-8.9,1.9-10.8
	c0.6-1.3,1.7-2.2,3.1-2.7c2.3-1.1,8.5-2.2,18.7-3.4c5.1-0.6,8.7-1.2,10.8-1.8c0.2-1.5,0.3-3.1,0.3-4.8c-18.3,0.6-32.9,1-43.9,1
	l-42.8-1h-13.6c0.1,2.7,0.6,4.4,1.5,5c1.2,0.9,6.2,1.6,15.1,2.3c8.9,0.7,15.3,2.1,19.3,4.1c0.8,1.4,1.3,2.9,1.8,4.4
	c0.6,7.5,1,14.7,1,21.5c0,2.6-0.1,4.8-0.2,6.8l-0.3,8.4l0.3,6.6v14.8l0.2,12.6l-0.3,11.5l0.6,19.5v17.8l0.2,16.9
	c0,24.7-1.2,38.5-3.5,41.4c-2.4,2.8-11.8,4.8-28.2,5.9c-2.5,0.2-4.9,0.8-7.3,1.8L542.6,402.6L542.6,402.6z M693.9,403.9
	c3.3,0,6.5-0.1,9.5-0.3c9.7-1,40.4-1.5,92.2-1.5l60.3,1.8c0.2-1.8,0.4-3.8,0.6-6c1.2-10.1,3.3-22.7,6.5-37.9c0.7-3.4,1.4-7.1,2.1-11
	h-5.3c-3.4,8.4-6.2,14-8.2,16.8c-1.3,1.7-2.2,3-2.7,3.9c-2.5,4.1-5.9,8.1-10.3,11.9c-7.3,6-12.5,9.6-15.6,10.9
	c-3.1,1.2-8.3,2-15.6,2.2l-27.9,1h-11c-13.1-0.1-21-0.2-23.7-0.3c-1.1-0.7-1.6-2.7-1.6-6l-0.2-10l0.5-45.5l-0.3-53.4v-10.2
	l-0.2-29.8v-9.7c0.2-5.3,0.3-8.8,0.3-10.5c0-7.2,1.2-11.5,3.7-12.9c1.5-0.9,7.3-1.5,17.2-1.9c10-0.4,15.6-0.7,16.8-0.9
	c0.6-2.2,1-4.3,1.1-6.3c-3.5-0.3-9.7-0.5-18.4-0.5l-12.9,1c-1,0.1-4.6,0.2-11,0.2c-2.6-0.2-4.1-0.3-4.7-0.3l-4.2,0.2l-14.2-0.3
	l-24.5-0.9c-4.6-0.2-8-0.4-10-0.4c-0.1,1.1-0.2,1.9-0.2,2.6c0,0.5,0.1,1.4,0.2,2.6c15,2.7,23.5,4.2,25.3,4.7c1.9,0.4,4.2,1.3,7,2.6
	c0.8,1.9,1.2,3.4,1.3,4.5c0.3,5.6,0.4,19.7,0.3,42.4v10l-0.2,37.8l0.2,28.9L715,376c-0.2,8.9-0.9,14.1-1.9,15.5
	c-1.5,1.9-4.9,3.1-10.2,3.5c-8,0.8-16.1,2.3-24.5,4.5c-0.8,1.3-1.2,2.7-1.3,4.4H693.9L693.9,403.9z M838.6,202.3
	c1.7,0.2,3,0.3,3.9,0.3c8.2,0.8,13.3,1.8,15.3,3.2c4.6,3.1,10.1,9.2,16.3,18.2l36,52.4l21.1,32.1c3.9,5.8,6.2,9.9,6.9,12.2
	c0.7,2.3,1,8.7,1,19.1c0,27.9-0.1,42.9-0.2,44.8c-0.3,2.7-1.1,4.7-2.4,6c-0.9,0.9-4.9,2.5-12.1,4.8l-20.9,3.2
	c-0.8,0.1-1.5,0.5-2.3,1.1c-0.3,1-0.5,1.7-0.5,2.3c0,0.5,0.2,1.4,0.6,2.6c2.6,0.1,5,0.2,7.1,0.2H931l27.6-1.5l41.3,1.8
	c0.8-1.8,1.1-3.3,1.1-4.6v-1.9c-19.5-1.9-30.6-3.6-33.4-5c-1.1-0.6-1.9-2.5-2.6-5.5c-1.2-6-1.8-25.8-1.8-59.3
	c0-8.5,0.6-14.9,1.8-19.1c0.5-1.7,2.2-4.4,5-8.1c1.5-1.9,3.5-4.9,6-8.9c7.6-12.1,17-25.6,28-40.5c11.1-14.8,24.5-30.6,40.3-47.2
	c1.3-1,3.1-1.9,5.3-2.7c1.4-0.1,2.4-0.2,3.1-0.3l3.9-0.5c1.6-0.1,2.8-0.3,3.5-0.5l0.5-5.6c-3.9-0.1-6.1-0.2-6.8-0.2l-24.3,0.5
	l-30.3-0.8l-8.4,0.2c-0.1,0.8-0.2,1.4-0.2,2.1c0,0.9,0.4,1.9,1.1,3.2c1.3,0.2,2.3,0.4,3.1,0.5c11.1,1.1,18.3,2.7,21.6,5
	c2,1.4,3.1,3.2,3.1,5.5c0,1-0.1,1.9-0.3,2.7c-0.4,1.7-1.8,4.4-4.2,8.1l-26.8,40.2l-23.3,33.4c-2.8,4-5,7-6.6,9l-24.5-37.1
	c-2.5-3.5-4.8-7.3-7.1-11.1c-5.7-9.7-11.1-18.1-16.1-25.2c-3.6-4.8-6.4-9.1-8.6-12.7c-1.2-1.7-2-3-2.6-3.9c-1.5-2.1-2.3-3.9-2.3-5.3
	c0-1.3,0.9-2.5,2.6-3.7c2.3-1.6,5.2-2.4,8.9-2.4l4.7,0.2l9.1-0.2h1.8l4.1-1.9v-1.8c0-1-0.4-1.9-1.1-2.7c-2.5-0.4-5.1-0.6-7.7-0.6
	l-18.9,0.3c-9.7,0-21.8-0.3-36.4-0.9c-9.5-0.3-15.6-0.4-18.4-0.4h-7.7L838.6,202.3L838.6,202.3z"/>
<g>
	<path class="st1" d="M1181.1,159.5c-1.2-1.8-2.8-2.5-4.7-2c-2.2,0.5-3.5,3-3.8,7.5c-0.3,4.5,0.3,10.3,2,17.4
		c1.1,4.8,2.3,8.2,3.7,10.2c1.4,2,3,2.8,4.8,2.4c2.5-0.6,3.8-2.8,4.1-6.8c0.2-4-0.6-10.1-2.5-18.5
		C1183.5,164.7,1182.3,161.3,1181.1,159.5z"/>
	<path class="st1" d="M1289.3,94.5c-45.5-65-135-80.8-200-35.3c-65,45.5-80.8,135-35.3,200c45.5,65,135,80.8,200,35.3
		C1319,249,1334.8,159.5,1289.3,94.5z M1140.2,184.8c-2.5,9.6-6.9,21.9-13.2,36.7c-3.2,7.1-6.2,13.2-9.1,18.4
		c-2.9,5.2-5.7,9.4-8.6,12.8c-2.8,3.4-5.8,6.1-8.7,8c-3,1.9-6.2,3.3-9.6,4.1c-2,0.5-4,0.7-6,0.7c-2,0-3.9-0.3-5.7-0.7
		c-1.8-0.5-3.4-1.1-4.7-2c-1.3-0.8-2.3-1.8-3-2.9c0-1.4,0.1-3.1,0.3-5.1c0.2-1.9,0.6-3.9,1-5.9c0.5-2,1-3.9,1.6-5.8
		c0.6-1.9,1.2-3.5,1.9-4.8l3.6-0.5c0.9,3.4,2.5,6,5,7.8c2.4,1.8,5.1,2.4,8.1,1.7c2.1-0.5,4.1-1.7,6-3.7c1.9-2,4-5,6.1-9
		c-2.1-5.9-4.3-11.7-6.5-17.4c-2.2-5.7-4.3-11.1-6.2-16c-1.9-4.9-3.7-9.2-5.2-12.8c-1.5-3.6-2.7-6.3-3.4-8c-0.7-1.5-1.5-2.5-2.2-2.9
		c-0.7-0.5-1.7-0.5-3-0.3c-0.4,0.1-0.8,0.2-1.2,0.3c-0.4,0.2-0.8,0.3-1.2,0.3l-1.4,0.3l-1.7-11.1l28.1-8.8l1.8,0.9
		c1.6,5.4,3.4,12,5.4,19.7c2,7.7,4.1,16.4,6.4,26l1.9-0.4c0.7-3,1.2-6.1,1.6-9.2c0.4-3.1,0.8-6,1-8.7c0.2-2.7,0.4-5.2,0.3-7.3
		c0-2.2-0.2-3.9-0.5-5.3c-0.5-2.1-1.5-3.9-3.2-5.3c-1.6-1.4-3.7-2.3-6.2-2.6l0-7l25-9.6c1.5,1.1,2.9,2.8,4.1,5
		c1.2,2.2,2.1,4.8,2.8,7.8C1143.3,167.7,1142.7,175.2,1140.2,184.8z M1210,178c-0.6,5.7-2.1,10.7-4.4,15.1
		c-2.4,4.4-5.6,8.2-9.7,11.2c-4.1,3.1-9,5.2-14.6,6.5c-7.9,1.8-14.5,0.9-19.9-2.8c-5.3-3.7-9-9.9-11-18.5
		c-1.4-6.2-1.8-12.1-1.2-17.6c0.6-5.5,2.1-10.4,4.5-14.7c2.4-4.3,5.7-8,9.8-11c4.1-3,9-5.2,14.6-6.5c8.1-1.8,14.7-1,19.9,2.5
		c5.2,3.5,8.8,9.4,10.7,17.9C1210.1,166.4,1210.6,172.4,1210,178z M1277.3,184.2c-1.8,2.1-3.6,3.7-5.3,4.8c-1.7,1.1-3.6,1.8-5.5,2.3
		c-4.7,1.1-7.5-0.6-8.5-5c-0.3-1.3-0.4-3.5-0.4-6.6c0.1-3.1,0.1-7.6,0.1-13.4l-1.2,0.4c-2.9,14.8-6.3,24.4-10.3,28.8
		c-6.5,1.5-11.8,1.4-16-0.4c-4.2-1.8-6.8-5-7.9-9.6c-0.4-1.8-0.5-4.3-0.4-7.7c0.1-3.3,0.2-6.8,0.4-10.4c0.2-3.6,0.3-7.1,0.4-10.4
		c0.1-3.3,0-5.8-0.4-7.4c-0.7-3-2.5-4.2-5.6-3.5l-3.9,0.9l-0.9-11.7c3.1-0.7,6.3-1.6,9.9-2.6c3.5-1,6.9-2,10-2.9
		c3.6-1.1,7.2-2.2,10.6-3.3l2.9,2.2c-0.5,6.8-0.9,12.9-1.2,18.4c-0.1,2.4-0.2,4.7-0.3,7.1c-0.1,2.4-0.1,4.5-0.2,6.5
		c0,1.9,0,3.6,0,5.1c0,1.5,0.1,2.5,0.2,3c0.5,2,1.4,2.9,2.9,2.5c0.8-0.2,1.7-1.1,2.5-2.8c0.9-1.7,1.7-4,2.5-6.9
		c0.8-2.9,1.6-6.3,2.3-10.4c0.7-4,1.3-8.4,1.9-13.2l-1.3-12.7l2.4-2.3l15.1-3.2l3.5,2.5c0.1,4.6,0.2,9.3,0.2,14.2
		c0.1,4.1,0.2,8.7,0.4,13.6c0.2,4.9,0.4,9.7,0.7,14.3l0.6,0.3c0.2,0,0.4-0.1,0.5-0.2c0.2-0.1,0.5-0.4,0.8-0.8
		c0.4-0.5,0.9-1.2,1.6-2.2c0.7-1,1.7-2.3,2.9-4.1l3.3-0.2l4.3,6c-2.8,5.1-5.3,9.3-7.5,12.7C1281.1,179.4,1279.1,182.1,1277.3,184.2z
		"/>
</g>
<g>
	<path class="st0" d="M85,490.6v-45.5h32.2v8.5H94.7v9.6h22v8.5h-22v10.4h22.5v8.5H85z"/>
	<path class="st0" d="M193.1,490.6l-2.9-7.7h-19.5l-2.9,7.7h-11l17.5-45.5h12.1l17.5,45.5H193.1z M180.4,454.8l-7.1,19.6h14.2
		L180.4,454.8z"/>
	<path class="st0" d="M251.3,490.6v-37H238v-8.5h36.3v8.5H261v37H251.3z"/>
	<path class="st0" d="M371.7,490.6v-45.5H393c9.9,0,15.3,6.7,15.3,14.7c0,7.9-5.5,14.6-15.3,14.6h-11.6v16.2H371.7z M398.4,459.8
		c0-3.8-2.9-6.1-6.8-6.1h-10.2v12.2h10.2C395.5,465.9,398.4,463.5,398.4,459.8z"/>
	<path class="st0" d="M449,467.9c0-13.7,10-23.5,23.8-23.5c13.7,0,23.7,9.8,23.7,23.5s-10,23.5-23.7,23.5
		C459.1,491.4,449,481.6,449,467.9z M486.6,467.9c0-8.5-5.4-14.9-13.8-14.9c-8.5,0-13.9,6.4-13.9,14.9c0,8.5,5.4,14.9,13.9,14.9
		C481.2,482.8,486.6,476.4,486.6,467.9z"/>
	<path class="st0" d="M573.7,490.6l-8-31.3l-7.9,31.3h-10.3l-13-45.5h10.8l8,32.9l8.7-32.9h7.6l8.6,32.9l8-32.9H597l-13,45.5H573.7z
		"/>
	<path class="st0" d="M638.4,490.6v-45.5h32.2v8.5h-22.5v9.6h22v8.5h-22v10.4h22.5v8.5H638.4z"/>
	<path class="st0" d="M740.7,490.6l-8.9-16.2h-7.1v16.2H715v-45.5h21.3c9.5,0,15.4,6.2,15.4,14.7c0,8-5.1,12.4-10,13.5l10.3,17.3
		H740.7z M741.7,459.7c0-3.8-2.9-6.1-6.8-6.1h-10.2v12.3h10.2C738.8,465.9,741.7,463.6,741.7,459.7z"/>
	<path class="st0" d="M795.7,490.6v-45.5h32.2v8.5h-22.5v9.6h22v8.5h-22v18.9H795.7z"/>
	<path class="st0" d="M871.5,472.4v-27.3h9.8v27c0,6.3,3.7,10.7,10.7,10.7s10.6-4.4,10.6-10.7v-27h9.9v27.3c0,11.3-6.7,19-20.5,19
		C878.2,491.4,871.5,483.7,871.5,472.4z"/>
	<path class="st0" d="M958.1,490.6v-45.5h9.8v37h19.2v8.5H958.1z"/>
</g>
</svg>
